<svg width="312" height="414" viewBox="0 0 312 414" fill="none" xmlns="http://www.w3.org/2000/svg">
<g clip-path="url(#clip0)">
<path d="M274.731 311.672C271.272 314.408 267.561 316.709 263.701 318.772C236.262 333.646 208.769 348.442 181.258 363.311C154.017 377.947 126.694 392.641 99.4335 407.35C90.8708 411.975 81.9744 414.155 73.3682 413.981C82.8064 413.366 92.2544 409.815 100.744 403.166C123.873 385.149 146.963 367.059 170.087 349.057C193.405 330.871 216.723 312.689 239.997 294.43C243.267 291.868 246.368 289.127 249.115 286.076C279.598 252.342 281.479 205.223 253.924 169.194C218.774 123.289 183.623 77.3853 148.453 31.5537C146.504 29.0062 144.37 26.6185 142.053 24.4099C139.044 21.5185 135.629 19.1066 132.005 17.2904C136.475 12.1614 142.116 7.81701 148.7 4.57204C169.047 -5.25005 195.742 1.29801 209.147 19.5425C211.125 22.245 212.998 25.1364 214.546 28.1634C243.185 82.2721 271.673 136.419 300.225 190.581C322.687 233.134 312.378 281.983 274.731 311.672Z" fill="#00DCD4"/>
<path d="M175.52 251.849C137.225 272.51 98.9541 293.098 60.6641 313.76C89.4868 291.205 118.368 268.669 147.258 246.134C164.388 232.8 167.001 212.478 153.842 195.294C126.872 160.055 99.9023 124.82 72.9372 89.5856C55.8119 67.2777 60.4996 36.4456 83.3527 20.153C97.4496 10.1614 116.926 9.42519 132.02 17.2761C130.544 18.9228 129.17 20.7293 128.019 22.5213C127.482 23.2526 127.032 23.9258 126.63 24.6862C126.064 25.5483 125.561 26.425 125.131 27.321C124.715 28.1491 124.308 28.9144 123.965 29.7571C117.627 43.6572 117.724 60.2114 125.571 75.1576C147.486 116.742 169.468 158.34 191.378 199.924C202.054 220.222 195.702 240.913 175.52 251.849Z" fill="#EB0064"/>
<path d="M249.125 286.071C246.373 289.122 243.272 291.868 240.006 294.42C216.737 312.684 193.415 330.871 170.102 349.042C146.968 367.054 123.888 385.144 100.749 403.161C92.2592 409.806 82.8113 413.356 73.373 413.971C73.223 414.01 73.0198 413.961 72.865 414C70.2382 413.918 67.5775 413.7 64.9168 413.186C61.1579 412.479 57.4523 411.283 53.8385 409.69C45.7209 406.047 38.4693 400.047 32.6593 391.963C24.4691 380.446 22.5485 365.233 25.9543 351.319C26.2832 349.968 26.6993 348.568 27.1637 347.255C27.6765 346.025 28.2521 344.872 28.8181 343.725C29.5873 342.339 30.342 341.022 31.2176 339.739C31.774 338.939 32.3255 338.14 32.8576 337.419C32.9592 337.302 33.0753 337.114 33.1769 336.997C33.9848 336.053 34.7878 335.099 35.6392 334.232C38.0387 331.747 40.6172 329.374 43.3553 327.253C49.1073 322.729 54.8254 318.336 60.5822 313.808L60.6645 313.759C98.9594 293.098 137.23 272.514 175.52 251.848C195.708 240.912 202.06 220.217 191.373 199.924C169.459 158.34 147.476 116.741 125.566 75.1573C117.715 60.2111 117.623 43.6569 123.96 29.7568C124.304 28.9092 124.71 28.1537 125.126 27.3207C125.557 26.4295 126.06 25.548 126.626 24.6859C127.027 23.9255 127.482 23.2475 128.014 22.521C129.166 20.729 130.54 18.9225 132.015 17.2758C135.643 19.0968 139.054 21.5088 142.068 24.3953C144.38 26.6087 146.518 28.9916 148.468 31.544C183.633 77.3852 218.783 123.28 253.939 169.184C281.489 205.218 279.607 252.338 249.125 286.071Z" fill="#0A26EE"/>
<mask id="mask0" mask-type="alpha" maskUnits="userSpaceOnUse" x="0" y="35" width="274" height="366">
<path d="M253.493 169.029L150.935 35.356H0.483398V400.536H104.009C149 365.826 237.815 296.886 243.233 291.849L243.279 291.807C250.11 285.456 273.327 263.873 273.327 226.664C273.327 196.83 259.459 175.487 253.493 169.029Z" fill="#C4C4C4"/>
</mask>
<g mask="url(#mask0)">
<g style="mix-blend-mode:multiply" opacity="0.8">
<path d="M222.472 351.265C234.187 351.265 243.684 346.732 243.684 341.141C243.684 335.55 234.187 331.017 222.472 331.017C210.757 331.017 201.26 335.55 201.26 341.141C201.26 346.732 210.757 351.265 222.472 351.265Z" fill="#C8C8C8"/>
</g>
<path d="M169.176 292.206C169.176 292.206 165.139 285.669 164.747 278.552C164.355 271.436 165.917 268.48 168.057 267.633C170.198 266.786 170.362 269.395 171.464 270.947C172.571 272.493 174.808 271.606 175.631 266.797C176.454 261.983 179.486 253.831 185.76 252.274C192.687 250.557 188.968 258.691 187.231 261.863C185.493 265.035 184.136 269.355 185.283 270.532C186.43 271.708 188.207 269.537 189.911 271.549C191.972 273.982 185.573 282.73 181.899 284.85L169.176 292.206Z" fill="#F0F0F0"/>
<path d="M68.7474 282.52C68.7474 282.52 60.6453 280.542 60.2251 265.353C59.7709 248.96 62.2124 229.832 52.6567 228.274C43.1011 226.717 37.7356 238.449 37.8605 252.08C37.9684 264.051 42.7831 290.023 68.7531 295.11L68.7474 282.52Z" fill="#E0E0E0"/>
<path d="M68.7475 332.547C60.3671 333.684 46.7632 333.661 38.9223 327.477C31.0813 321.287 32.7165 315.955 35.7314 313.726C38.7463 311.498 41.3637 308.957 36.1799 304.018C30.9905 299.078 22.6555 291.143 19.9586 279.24C17.2617 267.337 18.5903 259.896 23.8933 257.418C29.043 255.013 30.4 258.833 33.5511 266.723C36.7023 274.607 43.7938 267.849 49.8576 270.31C55.9214 272.771 55.683 277.643 56.0634 281.832C56.4438 286.021 58.448 287.181 61.8831 287.181C65.3181 287.181 68.7475 289.165 68.7475 293.132V332.547Z" fill="#F5F5F5"/>
<path d="M69.1533 117.675L68.4515 113.596L64.8147 115.991C64.4501 115.293 63.9806 114.732 63.4338 114.312L65.1747 109.599L61.9344 108.873L59.5417 113.44C58.7487 113.564 57.9102 113.828 57.0488 114.253L56.0143 110.808L52.136 113.86L52.3912 117.916C51.6073 118.792 50.8872 119.746 50.2446 120.754L47.0408 120.595L44.794 125.636L47.5466 126.814C47.255 127.9 47.0681 128.976 47.0043 130.012L43.5088 133.229L44.2106 137.308L47.8474 134.912C48.212 135.61 48.6814 136.172 49.2283 136.591L47.4874 141.305L50.7277 142.03L54.1503 138.69C54.9433 138.567 54.7519 137.075 55.6133 136.655L56.6478 140.096L60.5261 137.043L60.4259 135.446C61.2097 134.57 64.1766 132.64 64.8192 131.636L65.6259 130.309L67.8727 125.267L66.8245 123.369L65.6623 120.896L69.1533 117.675ZM57.304 131.121C54.3281 133.461 53.4211 133.972 52.8834 130.847C52.3456 127.722 54.0865 122.945 57.0625 120.604C60.0385 118.263 61.1824 118.085 61.7202 121.215C62.2579 124.345 60.28 128.776 57.304 131.121Z" fill="#E0E0E0"/>
<path d="M61.9327 108.873L66.171 111.319L63.7784 115.886L59.54 113.436L61.9327 108.873Z" fill="#F5F5F5"/>
<path d="M72.6887 116.042L69.0564 118.437L64.8135 115.991L68.4503 113.596L72.6887 116.042Z" fill="#F5F5F5"/>
<path d="M72.1053 127.708L69.3526 126.536L65.1143 124.086L67.8669 125.263L72.1053 127.708Z" fill="#E0E0E0"/>
<path d="M47.4814 141.309L51.7198 143.755L53.4608 139.041L49.2224 136.596L47.4814 141.309Z" fill="#E0E0E0"/>
<path d="M60.8849 142.541L56.6465 140.096L55.6074 136.656L59.8458 139.101L60.8849 142.541Z" fill="#E0E0E0"/>
<path d="M73.3906 120.12L72.6887 116.041L69.0519 118.437C68.6873 117.739 68.2179 117.178 67.671 116.758L69.412 112.045L66.1716 111.319L63.779 115.886C62.986 116.01 62.1475 116.274 61.2861 116.698L60.2516 113.258L56.3732 116.311L56.6285 120.367C55.8446 121.243 55.1245 122.196 54.4819 123.205L51.2781 123.045L49.0313 128.087L51.7839 129.264C51.4923 130.35 51.3054 131.427 51.2416 132.462L47.7461 135.679L48.4479 139.758L52.0847 137.363C52.4493 138.061 52.9187 138.622 53.4656 139.042L51.7247 143.755L54.965 144.48L57.3576 139.913C58.1506 139.79 58.9892 139.525 59.8505 139.101L60.8851 142.541L64.7634 139.489L64.5082 135.433C65.2921 134.557 66.0121 133.603 66.6547 132.595L69.8586 132.754L72.1054 127.713L69.3527 126.536C69.6444 125.45 69.8312 124.373 69.895 123.337L73.3906 120.12ZM61.5413 133.567C58.5654 135.907 55.717 135.273 55.1792 132.143C54.6414 129.013 56.6193 124.578 59.5953 122.233C62.5713 119.892 65.4197 120.527 65.9575 123.657C66.4952 126.787 64.5173 131.221 61.5413 133.567Z" fill="#EBEBEB"/>
<path d="M60.2512 113.253L56.0128 110.808L52.1299 113.86L56.3683 116.31L60.2512 113.253Z" fill="#F5F5F5"/>
<path d="M52.1299 113.86L52.3851 117.917L56.6235 120.367L56.3683 116.31L52.1299 113.86Z" fill="#E0E0E0"/>
<path d="M54.4774 123.205L50.239 120.755L47.0352 120.6L51.2736 123.045L54.4774 123.205Z" fill="#F5F5F5"/>
<path d="M47.0349 120.6L44.7881 125.642L49.0265 128.087L51.2733 123.045L47.0349 120.6Z" fill="#E0E0E0"/>
<path d="M51.2368 132.462L46.9985 130.012L43.5029 133.229L47.7413 135.679L51.2368 132.462Z" fill="#F5F5F5"/>
<path d="M48.4431 139.758L44.2048 137.313L43.5029 133.229L47.7413 135.679L48.4431 139.758Z" fill="#E0E0E0"/>
<path d="M66.171 111.319L61.9326 108.873L65.1729 109.599L69.4113 112.044L66.171 111.319Z" fill="#F5F5F5"/>
<path d="M50.1672 99.1683V93.0771L45.3226 95.2626C45.031 94.1356 44.5843 93.1729 44.0147 92.3745L47.0681 86.2149L43.3402 84.0613L39.5393 89.7874C38.564 89.6916 37.5067 89.7874 36.3901 90.0977L35.8569 84.805L30.5886 87.8529L30.0553 93.7569C28.9342 94.7425 27.8769 95.8649 26.9062 97.0922L23.1053 95.7645L19.3774 102.225L22.4308 104.858C21.8611 106.313 21.4145 107.792 21.1228 109.256L16.2783 112.669V118.76L21.1228 116.575C21.4145 117.702 21.8611 118.664 22.4308 119.463L19.3774 125.623L23.1053 127.776L26.9062 122.05C27.8815 122.146 28.9388 122.05 30.0553 121.74L30.5886 127.032L35.8569 123.985L36.3901 118.08C37.9624 117.556 39.6396 116.338 40.6148 115.115L43.3447 116.077L47.0727 109.617L44.7849 107.646C45.3545 106.19 45.4183 103.859 45.3272 102.586L50.1672 99.1683ZM33.2182 114.38C29.1758 116.716 26.6601 115.06 26.6601 110.383C26.6601 105.711 30.0007 99.9804 34.0476 97.6443C38.09 95.3082 40.5419 97.0056 40.5419 101.682C40.5419 106.359 37.2606 112.044 33.2182 114.38Z" fill="#E0E0E0"/>
<path d="M47.577 86.5067L43.3386 84.0611L39.5332 89.7872L43.7716 92.2328L47.577 86.5067Z" fill="#F5F5F5"/>
<path d="M54.4042 95.5225L50.1658 93.077L45.3213 95.2625L49.5597 97.7081L54.4042 95.5225Z" fill="#F5F5F5"/>
<path d="M34.8204 129.478L30.582 127.033L30.0488 121.74L34.2872 124.185L34.8204 129.478Z" fill="#E0E0E0"/>
<path d="M19.3711 125.622L23.6095 128.068L26.6584 121.908L22.42 119.458L19.3711 125.622Z" fill="#E0E0E0"/>
<path d="M54.4038 101.618V95.5227L49.5593 97.7082C49.2676 96.5812 48.821 95.6185 48.2513 94.82L51.3048 88.6604L47.5768 86.5068L43.7714 92.233C42.7961 92.1372 41.7388 92.233 40.6222 92.5432L40.089 87.2506L34.8207 90.2984L34.2874 96.2025C33.1663 97.188 32.109 98.3104 31.1383 99.5378L27.3328 98.2101L23.6049 104.671L26.6584 107.303C26.0887 108.759 25.6421 110.237 25.3504 111.702L20.5059 115.115V121.206L25.3504 119.02C25.6421 120.147 26.0887 121.11 26.6584 121.908L23.6049 128.068L27.3328 130.222L31.1383 124.496C32.1136 124.591 33.1709 124.496 34.2874 124.185L34.8207 129.478L40.089 126.43L40.6222 120.526C41.7433 119.54 42.8007 118.418 43.7714 117.191L47.5768 118.518L51.3048 112.058L48.2513 109.425C48.821 107.97 49.2676 106.491 49.5593 105.027L54.4038 101.618ZM37.4548 116.83C33.4124 119.166 30.1311 117.273 30.1311 112.596C30.1311 107.924 33.4079 102.239 37.4548 99.8982C41.4972 97.5622 44.7786 99.4557 44.7786 104.132C44.7786 108.809 41.4972 114.49 37.4548 116.83Z" fill="#EBEBEB"/>
<path d="M26.9002 97.0923L31.1385 99.5379L27.3331 98.2056L23.0947 95.76L26.9002 97.0923Z" fill="#F0F0F0"/>
<path d="M23.0922 95.7554L19.3672 102.221L23.6069 104.669L27.3319 98.2035L23.0922 95.7554Z" fill="#F5F5F5"/>
<path d="M19.3711 102.225L23.6095 104.671L26.6584 107.303L22.42 104.853L19.3711 102.225Z" fill="#E0E0E0"/>
<path d="M21.1121 109.256L25.3505 111.702L20.506 115.115L16.2676 112.669L21.1121 109.256Z" fill="#F5F5F5"/>
<path d="M16.2676 112.669L20.506 115.115V121.206L16.2676 118.76V112.669Z" fill="#E0E0E0"/>
<path d="M40.0897 87.2512L35.8514 84.8057L30.583 87.8489L34.8214 90.2991L40.0897 87.2512Z" fill="#F5F5F5"/>
<path d="M79.6072 343.92L166.414 293.745C167.294 293.233 167.3 292.409 166.414 291.892L158.386 287.242C157.506 286.73 156.069 286.73 155.189 287.242L68.3596 337.417C67.4739 337.929 67.4739 338.753 68.3596 339.265L76.4106 343.92C77.2964 344.432 78.7272 344.432 79.6072 343.92Z" fill="#E0E0E0"/>
<path d="M162.253 100.986L83.9913 146.222C81.7826 147.5 79.9941 150.604 79.9941 153.156V339.004C79.9941 341.556 81.7826 342.591 83.9913 341.318L162.253 296.082C164.462 294.803 166.25 291.7 166.25 289.147V103.299C166.25 100.742 164.462 99.707 162.253 100.986Z" fill="#78CBFF"/>
<path d="M83.9913 146.216L162.253 100.98C164.229 99.8379 165.864 100.548 166.188 102.538C165.887 100.156 164.246 97.513 162.253 96.3591L159 94.4776C156.791 93.1986 153.214 93.1986 151.006 94.4776L72.7494 139.713C71.6479 140.35 70.6486 141.447 69.9219 142.703L81.1752 149.206C81.8906 147.95 82.8898 146.858 83.9913 146.216Z" fill="#00ABFF"/>
<path d="M68.7467 332.496C68.7467 335.048 70.5352 338.152 72.7438 339.431L75.9972 341.312C77.9957 342.466 81.1015 342.568 83.3101 341.636C81.4251 342.352 79.9886 341.289 79.9886 339.004V153.151C79.9886 151.872 80.4372 150.462 81.1582 149.206L69.905 142.703C69.1839 143.959 68.7354 145.369 68.7354 146.648L68.7467 332.496Z" fill="#0096FD"/>
<path d="M86.1431 170.988L160.101 128.242C161.424 127.475 162.503 128.1 162.503 129.629V267.149C162.503 268.678 161.43 270.543 160.101 271.31L86.1431 314.062C84.8202 314.829 83.7471 314.204 83.7471 312.675V175.155C83.7471 173.614 84.8202 171.755 86.1431 170.988Z" fill="white"/>
<path d="M123.122 130.652C122.344 131.101 121.714 132.193 121.714 133.091C121.714 133.989 122.344 134.353 123.122 133.904C123.9 133.455 124.53 132.363 124.53 131.465C124.53 130.567 123.9 130.203 123.122 130.652Z" fill="#EDF1F7"/>
<path d="M123.122 299.283C120.056 301.056 117.569 305.365 117.569 308.912C117.569 312.459 120.056 313.891 123.122 312.123C126.188 310.35 128.675 306.041 128.675 302.494C128.675 298.947 126.188 297.515 123.122 299.283Z" fill="#EDF1F7"/>
<path d="M109.842 144.953C108.286 145.851 107.031 148.034 107.031 149.83C107.031 151.627 108.292 152.354 109.842 151.456C111.397 150.558 112.652 148.375 112.652 146.579C112.652 144.788 111.392 144.055 109.842 144.953Z" fill="#EDF1F7"/>
<path d="M116.718 144.345C116.718 145.545 117.615 145.994 118.716 145.357L137.22 134.659C138.322 134.023 139.219 132.533 139.219 131.334C139.219 130.135 138.322 129.685 137.22 130.322L118.716 141.02C117.615 141.662 116.718 143.152 116.718 144.345Z" fill="#EDF1F7"/>
<path d="M74.9691 176.94C76.2125 177.656 77.2175 179.406 77.2175 180.839C77.2175 182.277 76.2125 182.857 74.9691 182.141C73.7257 181.424 72.7207 179.674 72.7207 178.241C72.7207 176.809 73.7257 176.218 74.9691 176.94Z" fill="#9DD2EC"/>
<path d="M74.9691 194.294C76.2125 195.01 77.2175 196.76 77.2175 198.193C77.2175 199.625 76.2125 200.211 74.9691 199.495C73.7257 198.778 72.7207 197.028 72.7207 195.595C72.7207 194.157 73.7257 193.577 74.9691 194.294Z" fill="#9DD2EC"/>
<path d="M74.2767 177.287C75.5201 178.003 76.5251 179.754 76.5251 181.186C76.5251 182.624 75.5201 183.204 74.2767 182.488C73.0333 181.772 72.0283 180.021 72.0283 178.588C72.0227 177.15 73.0333 176.57 74.2767 177.287Z" fill="#EDF1F7"/>
<path d="M74.2767 194.641C75.5201 195.357 76.5251 197.108 76.5251 198.54C76.5251 199.978 75.5201 200.558 74.2767 199.842C73.0333 199.125 72.0283 197.375 72.0283 195.942C72.0283 194.51 73.0333 193.924 74.2767 194.641Z" fill="#EDF1F7"/>
<path d="M177.504 133.972C177.504 132.443 176.431 131.818 175.102 132.585L166.251 137.701L101.144 175.331C99.8211 176.098 98.748 177.957 98.748 179.492V317.012C98.748 318.541 99.8211 319.166 101.144 318.399L166.273 280.752L175.102 275.647C176.425 274.88 177.504 273.021 177.504 271.486V133.972Z" fill="white"/>
<path d="M178.424 133.972C178.424 132.886 178.009 132.051 177.26 131.619C176.51 131.187 175.579 131.244 174.642 131.789L100.684 174.535C99.0543 175.479 97.8223 177.61 97.8223 179.498V317.018C97.8223 318.103 98.2367 318.939 98.9862 319.371C99.3155 319.558 99.6789 319.655 100.071 319.655C100.57 319.655 101.081 319.502 101.604 319.2L175.562 276.454C177.163 275.528 178.424 273.351 178.424 271.498V133.972ZM99.9117 317.774C99.7924 317.705 99.6732 317.444 99.6732 317.018V179.498C99.6732 178.304 100.576 176.735 101.609 176.138L175.568 133.392C175.817 133.25 176.033 133.188 176.181 133.188C176.249 133.188 176.306 133.199 176.345 133.222C176.465 133.29 176.584 133.551 176.584 133.978V271.498C176.584 272.691 175.681 274.26 174.648 274.857L100.69 317.603C100.315 317.813 100.031 317.836 99.9117 317.774Z" fill="#89FBD3"/>
<path d="M138.123 165.929C146.406 161.143 153.123 165.019 153.123 174.597C153.123 184.175 146.406 195.823 138.123 200.609C129.839 205.395 123.122 201.518 123.122 191.94C123.122 182.368 129.839 170.721 138.123 165.929Z" fill="#0FF0AD"/>
<path d="M138.123 173.466C140.808 171.914 142.989 173.171 142.989 176.28C142.989 179.389 140.808 183.164 138.123 184.721C135.437 186.273 133.257 185.017 133.257 181.907C133.257 178.798 135.437 175.024 138.123 173.466Z" fill="#89FBD3"/>
<path d="M147.61 190.036C147.61 184.932 144.028 182.863 139.616 185.415L136.857 187.012C132.439 189.564 128.862 195.772 128.862 200.876V202.252C131.417 203.099 134.625 202.638 138.128 200.615C141.728 198.534 145.027 195.158 147.616 191.218V190.036H147.61Z" fill="#89FBD3"/>
<path d="M109.098 221.738L128.403 210.579C129.288 210.068 130.004 210.483 130.004 211.506V212.142C130.004 213.166 129.288 214.405 128.403 214.916L109.098 226.075C108.218 226.586 107.497 226.171 107.497 225.148V224.511C107.503 223.488 108.218 222.249 109.098 221.738Z" fill="#00DCD4"/>
<path d="M109.098 221.738L128.403 210.579C129.288 210.068 130.004 210.483 130.004 211.506V212.142C130.004 213.166 129.288 214.405 128.403 214.916L109.098 226.075C108.218 226.586 107.497 226.171 107.497 225.148V224.511C107.503 223.488 108.218 222.249 109.098 221.738Z" fill="#0FF0AD"/>
<path d="M108.298 235.203L166.699 201.444C167.142 201.189 167.499 201.393 167.499 201.905V208.726C167.499 209.238 167.142 209.857 166.699 210.113L108.298 243.872C107.855 244.128 107.497 243.923 107.497 243.412V236.59C107.503 236.079 107.86 235.459 108.298 235.203Z" fill="#00DCD4"/>
<path d="M108.298 235.203L166.699 201.444C167.142 201.189 167.499 201.393 167.499 201.905V208.726C167.499 209.238 167.142 209.857 166.699 210.113L108.298 243.872C107.855 244.128 107.497 243.923 107.497 243.412V236.59C107.503 236.079 107.86 235.459 108.298 235.203Z" fill="#89FBD3"/>
<path d="M109.098 252.086L128.403 240.928C129.288 240.416 130.004 240.831 130.004 241.854V242.491C130.004 243.514 129.288 244.753 128.403 245.265L109.098 256.423C108.218 256.935 107.497 256.52 107.497 255.497V254.86C107.503 253.837 108.218 252.592 109.098 252.086Z" fill="#00DCD4"/>
<path d="M109.098 252.086L128.403 240.928C129.288 240.416 130.004 240.831 130.004 241.854V242.491C130.004 243.514 129.288 244.753 128.403 245.265L109.098 256.423C108.218 256.935 107.497 256.52 107.497 255.497V254.86C107.503 253.837 108.218 252.592 109.098 252.086Z" fill="#0FF0AD"/>
<path d="M108.298 265.552L166.699 231.793C167.142 231.537 167.499 231.748 167.499 232.254V239.075C167.499 239.586 167.142 240.206 166.699 240.462L108.298 274.221C107.855 274.477 107.497 274.272 107.497 273.76V266.939C107.503 266.428 107.86 265.808 108.298 265.552Z" fill="#00DCD4"/>
<path d="M108.298 265.552L166.699 231.793C167.142 231.537 167.499 231.748 167.499 232.254V239.075C167.499 239.586 167.142 240.206 166.699 240.462L108.298 274.221C107.855 274.477 107.497 274.272 107.497 273.76V266.939C107.503 266.428 107.86 265.808 108.298 265.552Z" fill="#89FBD3"/>
<path d="M131.599 269.423L154.651 256.099C155.537 255.587 156.252 256.002 156.252 257.025V264.165C156.252 265.188 155.537 266.427 154.651 266.939L131.599 280.263C130.713 280.774 129.998 280.359 129.998 279.336V272.197C130.004 271.179 130.719 269.935 131.599 269.423Z" fill="#00DCD4"/>
<path d="M131.599 269.423L154.651 256.099C155.537 255.587 156.252 256.002 156.252 257.025V264.165C156.252 265.188 155.537 266.427 154.651 266.939L131.599 280.263C130.713 280.774 129.998 280.359 129.998 279.336V272.197C130.004 271.179 130.719 269.935 131.599 269.423Z" fill="#0FF0AD"/>
<path d="M183.142 218.042C183.142 218.042 169.527 199.238 168.698 196.999C168.074 195.311 168.744 192.804 168.897 191.638C169.05 190.473 169.277 187.875 169.47 187.154C169.811 185.892 168.176 186.153 167.262 187.296C166.325 188.472 166.024 190.763 165.558 191.138C165.093 191.513 161.453 186.221 159.557 183.777C157.661 181.327 156.474 179.855 155.321 180.759C154.492 181.412 155.111 182.839 156.485 184.925C157.859 187.011 158.473 187.978 158.677 188.427C158.887 188.876 157.751 188.91 157.144 189.854C156.667 190.587 157.11 191.775 156.48 192.343C155.849 192.912 155.259 193.929 155.952 195.077C156.832 196.544 158.603 198.636 160.641 200.046C162.68 201.455 163.503 201.955 164.701 203.877C165.905 205.798 176.749 225.403 177.476 226.58C178.203 227.756 179.616 230.155 181.757 230.223C183.897 230.292 201.402 215.2 202.305 214.45C205.189 212.039 206.103 211.687 206.597 213.858C206.75 214.535 206.853 215.314 206.966 216.189C207.312 218.934 209.18 228.768 209.18 228.768C209.18 228.768 218.038 233.066 225.328 230.945C232.618 228.831 235.065 225.778 235.065 225.778L231.42 219.827C232.414 217.371 237.001 207.435 238.438 200.472L215.608 196.783C215.136 196.68 214.393 196.493 213.433 196.243C212.178 195.913 209.027 194.805 206.597 196.919C198.739 203.757 183.142 218.042 183.142 218.042Z" fill="#FFC9B1"/>
<path d="M228.405 333.365L224.312 339.061C224.312 339.061 226.208 340.175 230.256 340.328C233.918 340.47 234.923 339.265 235.06 338.975C235.678 337.645 234.713 335.252 234.446 333.194L228.405 333.365Z" fill="#2B454E"/>
<path d="M224.545 336.327C224.545 336.327 219.588 336.008 216.153 335.576C212.724 335.144 210.01 336.821 210.816 338.231C211.622 339.646 213.507 340.817 216.448 341.806C218.969 342.653 221.984 343.273 224.613 344.057C227.304 344.864 229.03 345.791 230.557 345.262C232.261 344.677 232.987 343.995 232.846 342.756C232.704 341.516 231.466 337.52 231.466 337.52L224.545 336.327Z" fill="#2B454E"/>
<path d="M235.059 327.647C235.059 327.647 234.44 332.82 234.389 333.928C234.344 335.037 229.348 335.395 228.399 333.365L228.246 327.044L235.059 327.647Z" fill="#FF9090"/>
<path d="M230.024 330.83L231.812 338.675C231.812 338.675 231.982 339.63 227.9 340.238C223.818 340.846 217.419 338.1 216.329 337.543C215.239 336.986 215.108 335.872 219.117 336.094C223.125 336.316 224.545 336.327 224.545 336.327L223.244 332.848L230.024 330.83Z" fill="#FFAAA8"/>
<path d="M238.432 200.466L241.254 199.687C241.254 199.687 247.164 218.4 247.823 220.202C248.476 222.004 249.214 223.925 247.942 226.159C246.426 228.814 238.437 239.5 238.437 239.5L233.367 234.532L239.124 223.976L234.031 213.654L238.432 200.466Z" fill="#EFB39C"/>
<path d="M209.374 176.143C209.374 176.143 207.108 172.517 209.493 168.077C212.304 162.848 218.583 160.295 226.055 161.273C229.507 161.728 233.584 164.564 235.815 168.896C238.274 173.654 238.501 183.243 239.108 186.869L209.374 176.143Z" fill="#2B454E"/>
<path d="M209.203 178.189C209.203 178.189 207.426 181.572 207.738 181.884C208.045 182.191 209.231 182.441 209.231 182.441L209.203 178.189Z" fill="#FFC9B1"/>
<path d="M214.592 167.492C212.661 168.754 209.34 171.056 209.192 178.661C209.044 186.466 210.146 188.984 211.298 189.888C212.076 190.496 216.63 190.189 218.583 189.729C220.536 189.268 226.157 186.489 228.178 182.265C230.557 177.292 230.075 170.01 226.538 167.901C221.552 164.923 216.227 166.423 214.592 167.492Z" fill="#FFC9B1"/>
<path d="M235.059 225.773C238.477 231.099 241.725 235.789 242.418 241.774C243.883 254.41 239.079 268.86 238.063 278.205C238.063 278.205 241.288 282.4 241.282 287.334C241.282 291.193 235.059 327.647 235.059 327.647C235.059 327.647 230.534 329.028 228.246 327.044L223.971 259.987L226.225 251.824L235.059 225.773Z" fill="#00A1FF"/>
<path d="M223.977 259.987L226.231 251.824C226.231 251.824 232.476 250.312 238.438 246.976C238.438 246.976 236.127 251.176 229.512 253.478L226.066 263.972L225.771 287.988L223.977 259.987Z" fill="#00DCD4"/>
<path d="M223.977 259.987L226.231 251.824C226.231 251.824 232.476 250.312 238.438 246.976C238.438 246.976 236.127 251.176 229.512 253.478L226.066 263.972L225.771 287.988L223.977 259.987Z" fill="#008AFF"/>
<path d="M235.06 225.773C236.888 228.763 241.26 233.873 240.329 238.778C239.204 244.73 236.002 248.908 226.225 251.824L217.05 285.083C217.05 285.083 221.825 289.556 223.29 293.814C224.749 298.071 230.023 330.824 230.023 330.824C230.023 330.824 228.394 333.49 223.239 332.848C223.239 332.848 205.274 291.767 204.002 289.124C202.736 286.481 201.913 284.503 202.481 280.194C203.054 275.886 209.175 228.763 209.175 228.763L235.06 225.773Z" fill="#00A1FF"/>
<path d="M238.432 200.466L215.602 196.777C215.136 196.675 214.381 196.487 213.427 196.232C213.427 196.232 212.456 210.562 206.597 213.853C206.733 214.535 206.858 215.302 206.966 216.183C207.312 218.929 209.18 228.763 209.18 228.763C209.18 228.763 218.037 233.06 225.328 230.94C232.618 228.825 235.065 225.773 235.065 225.773L231.42 219.821C232.408 217.366 236.995 207.43 238.432 200.466Z" fill="#BCE1FF"/>
<path d="M232.408 217.485C232.317 217.701 225.067 221.589 222.915 222.181C226.31 222.01 229.132 221.214 231.409 219.822L232.408 217.485Z" fill="#78CBFF"/>
<path d="M214.024 167.873C214.024 167.873 212.962 175.086 215.534 179.321C215.534 179.321 216.499 176.45 218.941 176.996C221.393 177.547 221.496 180.736 219.792 182.549C218.089 184.357 216.193 183.703 216.193 183.703C216.193 183.703 215.812 188.916 215.602 193.293C215.403 197.505 214.228 207.196 219.145 211.09C224.062 214.984 236.377 216.303 242.151 208.22C245.365 203.723 241.095 195.777 239.114 186.869C237.291 178.678 236.263 166.537 227.582 164.587C218.901 162.643 214.024 167.873 214.024 167.873Z" fill="#2B454E"/>
<path d="M226.09 122.508L224.563 123.389C224.682 122.826 224.773 122.269 224.773 121.735C224.773 118.643 222.604 117.392 219.93 118.938C219.152 119.387 218.425 120.035 217.778 120.791C217.778 120.785 217.778 120.774 217.778 120.768C217.778 116.608 214.86 114.919 211.26 117C207.66 119.08 204.742 124.145 204.742 128.306C204.742 128.516 204.753 128.721 204.771 128.92C204.01 128.783 203.101 128.971 202.119 129.534C199.445 131.08 197.276 134.837 197.276 137.929C197.276 138.356 197.321 138.742 197.401 139.095L196.589 139.566C194.38 140.845 192.592 143.335 192.592 145.131C192.592 146.928 194.38 147.348 196.589 146.069L226.096 129.016C228.305 127.737 230.093 125.248 230.093 123.451C230.088 121.649 228.299 121.229 226.09 122.508Z" fill="#EBEBEB"/>
</g>
</g>
<defs>
<clipPath id="clip0">
<rect width="312" height="414" fill="white"/>
</clipPath>
</defs>
</svg>
